<svg id="Capa_1" enable-background="new 0 0 512.004 512.004" height="512" viewBox="0 0 512.004 512.004" width="512" xmlns="http://www.w3.org/2000/svg"><path d="m363.202 29.834-92.3 14.01v102.16h-30v-115.051c0-7.41 5.42-13.72 12.75-14.83l105.05-15.95c8.19-1.25 15.84 4.39 17.08 12.58s-4.39 15.84-12.58 17.081z" fill="#fde55f"/><path d="m363.202 29.834-92.3 14.01v102.16h-14.9v-130.24l102.7-15.59c8.19-1.25 15.84 4.39 17.08 12.58 1.24 8.189-4.39 15.839-12.58 17.08z" fill="#f7ba57"/><path d="m389.982 206.004-9.431 94.95-19.474 45.043 10.53 45.007-10.675 107.48c-.77 7.68-7.22 13.52-14.93 13.52h-180.1c-7.71 0-14.16-5.84-14.93-13.51l-10.713-107.49 10.675-43.394-19.65-46.657-9.463-94.95h268.161z" fill="#db1f79"/><path d="m389.982 206.004-.5 5-8.93 89.95-19.47 45.04 10.53 45.01-10.68 107.48c-.77 7.68-7.22 13.52-14.93 13.52h-90v-306z" fill="#b2096a"/><path d="m260.907 305.948.089 80.05c-1.953 1.955-3.047 3.05-5 5.006h-115.734l-8.98-90.05h124.626c1.951 1.95 3.047 3.044 4.999 4.994z" fill="#e85b8e"/><path d="m380.552 300.953-8.94 90.051h-115.61v-90.051z" fill="#db1f79"/><path d="m391.002 141.004h-270c-16.569 0-30 13.431-30 30v25c0 8.284 6.716 15 15 15h300c8.284 0 15-6.716 15-15v-25c0-16.569-13.432-30-30-30z" fill="#f0faff"/><path d="m421.002 171.004v25c0 8.28-6.72 15-15 15h-150v-70h135c16.57 0 30 13.429 30 30z" fill="#cee6f4"/></svg>